<svg xmlns="http://www.w3.org/2000/svg" width="1024" height="1024" viewBox="0 0 1024 1024">
<g>
<path d="M 155.05 804.58 C150.91,800.13 151.69,796.90 161.44,777.80 C166.30,768.29 173.42,754.88 177.27,748.00 C181.11,741.12 197.08,712.33 212.74,684.00 C228.40,655.67 247.42,621.47 255.00,608.00 C262.57,594.53 280.01,563.25 293.75,538.50 C333.40,467.04 341.17,453.82 344.97,451.25 C346.80,450.01 351.27,448.12 354.90,447.06 C365.11,444.06 427.64,429.31 435.50,428.04 C439.35,427.42 445.00,426.07 448.05,425.03 C462.06,420.26 476.96,418.90 479.19,422.17 C480.91,424.71 479.31,432.56 475.34,441.00 C473.15,445.67 466.62,457.83 460.84,468.00 C455.06,478.17 445.68,495.05 440.01,505.50 C434.33,515.95 426.22,530.58 421.99,538.00 C413.86,552.29 384.22,605.65 369.51,632.50 C356.71,655.87 341.36,683.33 335.98,692.50 C333.39,696.90 328.04,706.50 324.07,713.84 C320.11,721.17 315.10,730.07 312.94,733.60 C310.77,737.14 309.00,740.24 309.00,740.48 C309.00,741.42 297.49,760.84 292.83,767.74 C290.14,771.73 286.95,775.64 285.72,776.44 C284.50,777.24 276.39,779.75 267.69,782.01 C239.09,789.46 168.61,806.03 163.00,806.62 C157.97,807.16 157.29,806.98 155.05,804.58 ZM 460.14 726.06 C455.70,724.93 448.89,718.12 445.47,711.36 C443.01,706.48 442.78,705.19 443.29,699.05 C443.99,690.78 446.59,685.28 451.71,681.25 C459.95,674.77 467.21,672.89 475.89,674.97 C482.30,676.51 488.02,680.63 492.61,687.02 L 496.19 692.00 L 526.03 692.00 L 555.88 692.00 L 558.53 687.12 C570.48,665.16 606.00,674.67 606.00,699.83 C606.00,705.90 602.56,714.06 598.26,718.18 C592.31,723.88 588.46,725.45 580.50,725.43 C571.09,725.41 565.35,722.59 559.15,714.95 C556.59,711.80 553.60,708.95 552.50,708.62 C551.40,708.29 538.50,708.02 523.84,708.01 L 497.18 708.00 L 492.00 714.60 C488.14,719.51 485.49,721.80 481.66,723.55 C475.94,726.16 465.40,727.39 460.14,726.06 ZM 476.48 707.75 C478.38,705.96 480.18,703.38 480.49,702.00 C481.27,698.49 477.74,693.21 473.39,691.39 C465.05,687.91 456.42,696.11 459.63,704.47 C460.59,706.97 467.13,711.00 470.25,711.00 C472.01,711.00 474.29,709.81 476.48,707.75 ZM 583.78 708.93 C589.84,706.82 592.00,698.82 587.93,693.63 C586.27,691.53 585.00,691.00 581.61,691.00 C571.66,691.00 567.49,703.91 576.05,708.25 C580.12,710.31 579.87,710.29 583.78,708.93 ZM 525.27 627.79 C522.34,626.38 522.16,625.54 521.83,611.77 C521.64,603.85 521.93,599.67 522.71,598.89 C524.01,597.59 534.54,597.10 537.25,598.22 C538.78,598.85 539.00,600.45 539.00,611.03 C539.00,617.69 538.54,623.98 537.99,625.02 C537.43,626.06 535.29,627.38 533.24,627.95 C528.77,629.19 528.15,629.18 525.27,627.79 ZM 642.50 627.65 C640.56,626.19 640.51,625.09 640.68,589.97 L 640.87 553.80 L 643.68 549.73 C647.21,544.63 654.82,538.55 659.65,536.95 C665.02,535.18 689.66,536.20 697.93,538.54 C706.13,540.87 711.21,545.64 713.50,553.19 C715.71,560.43 717.03,624.05 715.03,626.46 C713.25,628.61 702.74,628.59 700.95,626.44 C700.12,625.44 699.32,619.40 698.72,609.69 C698.21,601.34 697.65,594.00 697.48,593.39 C697.29,592.70 691.87,592.02 682.84,591.56 C674.96,591.16 667.94,590.37 667.25,589.79 C665.45,588.30 665.61,577.53 667.46,575.68 C668.45,574.69 672.25,574.01 679.21,573.57 C695.67,572.53 696.71,572.27 697.86,568.97 C699.10,565.43 697.77,560.01 695.07,557.56 C694.01,556.60 691.20,555.38 688.82,554.85 C683.40,553.62 663.64,554.81 661.33,556.50 C659.84,557.59 659.54,561.03 658.86,584.62 C657.81,621.27 657.54,624.89 655.70,626.73 C653.48,628.95 645.01,629.55 642.50,627.65 ZM 789.04 626.07 C787.62,623.42 787.71,603.42 789.15,600.68 C790.75,597.65 791.94,597.03 796.25,597.02 C803.38,596.99 805.73,602.72 804.77,617.75 C804.19,626.78 803.07,628.00 795.34,628.00 C791.15,628.00 789.86,627.60 789.04,626.07 ZM 524.84 590.40 C523.92,590.12 522.93,589.25 522.63,588.47 C521.83,586.39 521.69,537.97 522.49,537.18 C522.86,536.81 535.17,536.50 549.83,536.50 L 576.50 536.50 L 582.21 539.30 C592.17,544.19 597.00,552.35 597.00,564.27 C597.00,570.16 596.49,572.63 594.41,576.81 C591.44,582.76 586.08,587.63 581.00,588.98 C577.21,589.99 527.57,591.25 524.84,590.40 ZM 574.04 571.48 C577.04,569.93 578.33,566.96 578.33,561.61 C578.33,557.65 574.89,555.01 569.64,554.95 C567.36,554.93 560.09,554.73 553.48,554.50 C546.87,554.28 540.84,554.48 540.08,554.95 C539.02,555.60 538.85,557.27 539.34,561.95 C540.46,572.72 540.26,572.61 559.30,572.85 C568.13,572.96 571.84,572.62 574.04,571.48 ZM 773.25 587.46 C763.44,582.52 759.90,575.89 757.90,558.67 C756.64,547.78 757.04,539.87 758.97,537.53 C760.42,535.78 767.45,535.46 771.41,536.96 C774.49,538.14 774.78,539.27 775.83,554.76 C777.01,572.11 778.23,573.13 797.97,573.19 C812.58,573.24 814.68,570.70 816.05,551.28 C816.54,544.40 817.46,538.15 818.09,537.39 C819.71,535.43 829.40,535.54 831.39,537.53 C833.67,539.82 834.31,544.95 833.76,556.83 C832.97,573.98 829.22,581.11 817.72,587.24 C813.89,589.28 811.90,589.52 796.00,589.80 C778.78,590.10 778.42,590.07 773.25,587.46 ZM 510.32 405.99 C509.11,405.51 507.61,404.14 506.97,402.95 C504.35,398.05 505.63,395.68 534.15,352.50 C551.27,326.58 565.17,306.63 568.86,302.66 C574.33,296.78 577.18,296.13 638.50,286.95 C660.50,283.66 688.62,279.36 701.00,277.42 C713.38,275.47 748.47,270.33 779.00,265.99 C827.02,259.17 894.22,249.19 913.58,246.00 C923.71,244.33 930.69,244.69 933.00,247.00 C934.10,248.10 935.00,249.62 935.00,250.37 C935.00,251.12 931.80,257.05 927.88,263.55 C917.89,280.16 875.69,343.23 871.42,347.96 C865.52,354.49 862.47,355.16 787.50,366.48 C771.00,368.97 748.95,372.36 738.50,374.00 C721.17,376.73 693.38,380.91 658.00,386.11 C650.58,387.20 627.85,390.54 607.50,393.52 C587.15,396.51 564.51,400.08 557.18,401.46 C545.83,403.60 517.82,407.14 513.78,406.94 C513.08,406.90 511.52,406.48 510.32,405.99 ZM 341.50 358.05 C326.15,354.86 285.07,344.67 276.50,341.92 C273.20,340.87 263.08,338.37 254.00,336.38 C244.93,334.39 235.93,332.11 234.00,331.31 C232.07,330.51 225.04,328.80 218.37,327.51 C211.71,326.22 200.23,323.61 192.87,321.70 C185.52,319.80 176.40,317.51 172.61,316.62 C168.82,315.74 165.10,314.50 164.36,313.88 C160.19,310.43 165.61,304.01 182.00,293.01 C187.23,289.50 194.65,284.30 198.51,281.45 C207.66,274.69 215.05,271.02 220.83,270.34 C226.70,269.65 239.78,271.90 256.28,276.42 C263.31,278.35 271.86,280.42 275.28,281.03 C283.64,282.53 334.07,295.01 336.15,296.10 C337.06,296.58 342.01,297.68 347.15,298.56 C352.29,299.43 365.87,302.37 377.33,305.08 C411.30,313.11 421.00,317.09 421.00,322.96 C421.00,325.45 419.98,326.62 414.25,330.63 C410.54,333.23 404.80,337.32 401.50,339.73 C395.21,344.32 381.01,353.34 372.50,358.14 C366.06,361.78 359.36,361.76 341.50,358.05 Z" fill="rgba(48,161,131,1)"/>
</g>
</svg>